<svg viewBox="0 0 1600 1601" xmlns="http://www.w3.org/2000/svg" xml:space="preserve" style="fill-rule:evenodd;clip-rule:evenodd;stroke-linejoin:round;stroke-miterlimit:2"><path style="fill:none" d="M0 0h1599.55v1600.81H0z"/><clipPath id="a"><path d="M0 0h1599.55v1600.81H0z"/></clipPath><g clip-path="url(#a)"><path d="M1601.8 120.957c0-65.605-53.263-118.868-118.869-118.868H121.121C55.515 2.089 2.252 55.352 2.252 120.957v1363.07c0 65.605 53.263 118.868 118.869 118.868h1361.81c65.606 0 118.869-53.263 118.869-118.868V120.957Z" style="fill:#292c1f;fill-opacity:.95"/><path style="fill:#fff" d="M231.733 233.143h1135.28v909.239H231.733z"/><circle cx="459.082" cy="459.066" r="113.392" style="fill:#292c1f"/><path d="m347.249 1029.2 913.623 2.73-315.153-415.234a35.651 35.651 0 0 0-56.905.144L697.725 871.285l-96.408-132.619a33.581 33.581 0 0 0-54.835.722L347.249 1029.2Z" style="fill:#292c1f"/></g></svg>