<?xml version="1.0" encoding="UTF-8" standalone="no"?><!DOCTYPE svg PUBLIC "-//W3C//DTD SVG 1.1//EN" "http://www.w3.org/Graphics/SVG/1.1/DTD/svg11.dtd"><svg width="100%" height="100%" viewBox="0 0 1600 1601" version="1.1" xmlns="http://www.w3.org/2000/svg" xmlns:xlink="http://www.w3.org/1999/xlink" xml:space="preserve" xmlns:serif="http://www.serif.com/" style="fill-rule:evenodd;clip-rule:evenodd;stroke-linejoin:round;stroke-miterlimit:2;"><rect id="forest-green" x="0" y="0" width="1599.55" height="1600.81" style="fill:none;"/><clipPath id="_clip1"><rect x="0" y="0" width="1599.55" height="1600.81"/></clipPath><g clip-path="url(#_clip1)"><g id="polaroid-art"><path d="M1601.8,120.957c-0,-65.605 -53.263,-118.868 -118.869,-118.868l-1361.81,-0c-65.606,-0 -118.869,53.263 -118.869,118.868l0,1363.07c0,65.605 53.263,118.868 118.869,118.868l1361.81,0c65.606,0 118.869,-53.263 118.869,-118.868l-0,-1363.07Z" style="fill:#292c1f;fill-opacity:0.95;"/><rect x="231.733" y="233.143" width="1135.28" height="909.239" style="fill:#fff;"/><circle cx="459.082" cy="459.066" r="113.392" style="fill:#292c1f;"/><path d="M347.249,1029.2l913.623,2.73c0,-0 -232.692,-306.587 -315.153,-415.234c-6.76,-8.907 -17.307,-14.126 -28.488,-14.098c-11.182,0.029 -21.702,5.301 -28.417,14.242c-59.325,78.995 -191.089,254.445 -191.089,254.445c0,0 -59.748,-82.189 -96.408,-132.619c-6.411,-8.818 -16.703,-13.976 -27.605,-13.832c-10.901,0.143 -21.054,5.57 -27.23,14.554c-59.944,87.198 -199.233,289.812 -199.233,289.812Z" style="fill:#292c1f;"/></g></g></svg>